<svg class="svg-icon" style="width: 1em;height: 1em;vertical-align: middle;fill: currentColor;overflow: hidden;" viewBox="0 0 1024 1024" version="1.1" xmlns="http://www.w3.org/2000/svg"><path d="M512 1024a512 512 0 1 1 0-1024 512 512 0 0 1 0 1024z m0-53.894737a458.105263 458.105263 0 1 0 0-916.210526 458.105263 458.105263 0 0 0 0 916.210526z m-147.402105-165.78021A26.947368 26.947368 0 0 1 323.368421 781.473684v-538.947368a26.947368 26.947368 0 0 1 41.229474-22.851369l431.157894 269.473685a26.947368 26.947368 0 0 1 0 45.702736l-431.157894 269.473685zM377.263158 291.139368v441.721264L730.650947 512 377.263158 291.139368z" fill="#000000" /></svg>